<svg role="img" width="16" height="16" viewBox="0 0 16 16" fill="none"
  xmlns="http://www.w3.org/2000/svg">
  <path fill-rule="evenodd" clip-rule="evenodd"
    d="M3.33208 5.18671C4.48635 4.22994 6.13247 3.33331 8.00016 3.33331C9.86786 3.33331 11.514 4.22994 12.6682 5.18671C13.2501 5.66899 13.7276 6.18311 14.0656 6.64229C14.2342 6.87136 14.3755 7.0968 14.4776 7.30645C14.5704 7.49704 14.6668 7.74567 14.6668 7.99998C14.6668 8.25429 14.5704 8.50292 14.4776 8.69351C14.3755 8.90316 14.2342 9.1286 14.0656 9.35767C13.7276 9.81685 13.2501 10.331 12.6682 10.8132C11.514 11.77 9.86786 12.6666 8.00016 12.6666C6.13247 12.6666 4.48635 11.77 3.33208 10.8132C2.75025 10.331 2.27274 9.81685 1.93476 9.35767C1.76616 9.1286 1.62486 8.90316 1.52273 8.69351C1.42988 8.50292 1.3335 8.25429 1.3335 7.99998C1.3335 7.74567 1.42988 7.49704 1.52273 7.30645C1.62486 7.0968 1.76616 6.87136 1.93476 6.64229C2.27274 6.18311 2.75025 5.66899 3.33208 5.18671ZM8 10C9.10457 10 10 9.10457 10 8C10 6.89543 9.10457 6 8 6C6.89543 6 6 6.89543 6 8C6 9.10457 6.89543 10 8 10Z"
    fill="#383838" />
</svg>
  