<svg role="img" width="16" height="16" viewBox="0 0 16 16" fill="none"
  xmlns="http://www.w3.org/2000/svg">
  <path
    d="M2.66683 10.3995L4.7035 8.36284C4.68485 8.24537 4.67261 8.12697 4.66683 8.00817C4.66789 7.12444 5.01942 6.27721 5.64431 5.65232C6.2692 5.02742 7.11643 4.67589 8.00016 4.67484C8.11895 4.68039 8.23735 4.69241 8.35483 4.71084L9.5175 3.54817C9.02266 3.41455 8.51271 3.34509 8.00016 3.3415C4.40816 3.3415 1.3335 6.89884 1.3335 8.00817C1.50737 8.9286 1.97525 9.76774 2.66683 10.3995Z"
    fill="#383838" />
  <path
    d="M9.80016 7.15084L13.13 3.81282C13.1937 3.75132 13.2445 3.67776 13.2794 3.59642C13.3143 3.51509 13.3327 3.42761 13.3335 3.33909C13.3343 3.25057 13.3174 3.16278 13.2839 3.08085C13.2504 2.99892 13.2009 2.92448 13.1383 2.86189C13.0757 2.79929 13.0012 2.74979 12.9193 2.71627C12.8374 2.68275 12.7496 2.66588 12.6611 2.66665C12.5725 2.66742 12.4851 2.68581 12.4037 2.72075C12.3224 2.75569 12.2488 2.80648 12.1873 2.87015L8.8575 6.20817C8.73209 6.1479 8.6007 6.10098 8.4655 6.06817L8.44216 6.06084C8.11271 5.9834 7.76895 5.99138 7.44344 6.08402C7.11794 6.17666 6.82149 6.35088 6.58218 6.59019C6.34288 6.82949 6.16865 7.12595 6.07601 7.45145C5.98337 7.77695 5.97539 8.12072 6.05283 8.45017C6.05283 8.45817 6.05816 8.46484 6.0595 8.47217C6.09232 8.60789 6.13947 8.73975 6.20016 8.8655L2.87033 12.1872C2.80666 12.2487 2.75587 12.3222 2.72093 12.4036C2.68599 12.4849 2.6676 12.5724 2.66683 12.6609C2.66606 12.7494 2.68293 12.8372 2.71645 12.9191C2.74997 13.0011 2.79947 13.0755 2.86207 13.1381C2.92466 13.2007 2.9991 13.2502 3.08103 13.2837C3.16296 13.3172 3.25074 13.3341 3.33926 13.3333C3.42778 13.3326 3.51526 13.3142 3.5966 13.2792C3.67794 13.2443 3.7515 13.1935 3.813 13.1298L7.14283 9.80817C7.26859 9.86886 7.40044 9.91602 7.53616 9.94884C7.5435 9.94884 7.55016 9.9535 7.55816 9.9555C7.88761 10.0329 8.23138 10.025 8.55688 9.93232C8.88238 9.83968 9.17884 9.66545 9.41814 9.42615C9.65745 9.18684 9.83167 8.89039 9.92431 8.56489C10.017 8.23939 10.0249 7.89562 9.9475 7.56617C9.9475 7.55817 9.94216 7.55084 9.94016 7.54284C9.90735 7.40763 9.86043 7.27624 9.80016 7.15084Z"
    fill="#383838" />
  <path
    d="M13.2142 5.73684L11.3095 7.6415C11.37 8.13876 11.3166 8.64327 11.1532 9.11682C10.9899 9.59037 10.7209 10.0205 10.3667 10.3747C10.0125 10.729 9.58236 10.9979 9.10881 11.1613C8.63526 11.3246 8.13075 11.378 7.6335 11.3175L6.4435 12.5075C6.95508 12.6177 7.47684 12.6738 8.00016 12.6748C12.3022 12.6748 14.6668 9.1695 14.6668 8.00817C14.6668 7.23084 13.5755 6.09217 13.2142 5.73684Z"
    fill="#383838" />
</svg>
  