<svg width="174" height="74" viewBox="0 0 174 74" fill="none" xmlns="http://www.w3.org/2000/svg">
  <path
    d="M18.7211 59.6966C15.4993 59.6966 12.7202 58.9855 10.3837 57.5633C8.06169 56.1265 6.2694 54.1238 5.00681 51.5551C3.75874 48.9719 3.1347 45.9678 3.1347 42.5428C3.1347 39.1179 3.75874 36.0993 5.00681 33.487C6.2694 30.8603 8.02541 28.814 10.2748 27.3483C12.5388 25.868 15.1801 25.1278 18.1987 25.1278C19.9402 25.1278 21.6599 25.4181 23.3579 25.9986C25.0558 26.5791 26.6014 27.5224 27.9946 28.8285C29.3878 30.1201 30.498 31.8326 31.3252 33.966C32.1524 36.0993 32.566 38.7261 32.566 41.8462V44.0231H6.79185V39.5823H27.3415C27.3415 37.6957 26.9642 36.0122 26.2096 34.5319C25.4694 33.0517 24.41 31.8834 23.0313 31.0272C21.6671 30.1709 20.0563 29.7428 18.1987 29.7428C16.1524 29.7428 14.3819 30.2508 12.8871 31.2666C11.4068 32.268 10.2676 33.5741 9.4694 35.185C8.67121 36.7959 8.27212 38.5229 8.27212 40.366V43.3265C8.27212 45.8517 8.70749 47.9923 9.57824 49.7483C10.4635 51.4898 11.6898 52.8177 13.2572 53.732C14.8245 54.6317 16.6458 55.0816 18.7211 55.0816C20.0708 55.0816 21.2898 54.893 22.3783 54.5156C23.4812 54.1238 24.4318 53.5433 25.23 52.7741C26.0282 51.9905 26.6449 51.0181 27.0803 49.8571L32.0436 51.2503C31.5211 52.9338 30.6431 54.4141 29.4096 55.6912C28.176 56.9537 26.6522 57.9406 24.8381 58.6517C23.0241 59.3483 20.9851 59.6966 18.7211 59.6966ZM62.4327 32.7687L59.9729 33.4217C59.581 32.2027 59.0223 31.1505 58.2967 30.2653C57.5711 29.38 56.6568 28.6979 55.5538 28.219C54.4654 27.7256 53.1593 27.4789 51.6354 27.4789C49.1828 27.4789 47.1729 28.0884 45.6055 29.3074C44.0527 30.5265 43.2762 32.1156 43.2762 34.0748C43.2762 35.6712 43.806 36.9918 44.8654 38.0367C45.9248 39.0671 47.5429 39.8508 49.7198 40.3877L54.8572 41.6721C57.4985 42.3251 59.4867 43.3846 60.8218 44.8503C62.157 46.3016 62.8246 48.1084 62.8246 50.2707C62.8246 52.1138 62.3239 53.7465 61.3225 55.1687C60.3212 56.5909 58.9352 57.7011 57.1647 58.4993C55.4087 59.2975 53.3624 59.6966 51.0259 59.6966C47.9057 59.6966 45.3443 58.971 43.3416 57.5197C41.3388 56.054 40.0545 53.9569 39.4885 51.2286L42.0354 50.5755C42.5143 52.7524 43.5084 54.4141 45.0177 55.5605C46.5416 56.6925 48.537 57.2585 51.0041 57.2585C53.7325 57.2585 55.9311 56.6127 57.6001 55.3211C59.2835 54.0295 60.1252 52.375 60.1252 50.3578C60.1252 48.8195 59.6318 47.5206 58.645 46.4612C57.6581 45.4018 56.1633 44.6254 54.1606 44.132L48.8273 42.8258C46.0989 42.1583 44.0527 41.0916 42.6885 39.6258C41.3243 38.1456 40.6422 36.3242 40.6422 34.1619C40.6422 32.3623 41.1139 30.7805 42.0572 29.4163C43.0005 28.0521 44.2994 26.9854 45.9538 26.2163C47.6082 25.4471 49.5021 25.0625 51.6354 25.0625C54.4654 25.0625 56.7729 25.7301 58.5579 27.0653C60.3429 28.4004 61.6345 30.3016 62.4327 32.7687ZM74.6722 37.3183V59H72.0164V14.4176H74.6722V30.853H74.9334C75.7171 29.1115 76.9652 27.7256 78.6776 26.6952C80.4046 25.6503 82.4727 25.1278 84.8817 25.1278C87.1312 25.1278 89.1121 25.6068 90.8246 26.5646C92.5371 27.5079 93.8722 28.8648 94.8301 30.6353C95.8024 32.3913 96.2886 34.4957 96.2886 36.9483V59H93.6545V37.0571C93.6545 34.1982 92.8056 31.9052 91.1076 30.1782C89.4096 28.4512 87.1675 27.5877 84.3811 27.5877C82.5089 27.5877 80.84 27.9941 79.3742 28.8068C77.9085 29.6195 76.7547 30.7587 75.913 32.2245C75.0858 33.6757 74.6722 35.3737 74.6722 37.3183ZM119.706 59.6966C116.949 59.6966 114.496 58.9565 112.348 57.4762C110.201 55.9814 108.51 53.9279 107.276 51.3156C106.043 48.7034 105.426 45.7283 105.426 42.3905C105.426 39.0381 106.043 36.063 107.276 33.4653C108.51 30.853 110.201 28.7995 112.348 27.3047C114.496 25.8099 116.949 25.0625 119.706 25.0625C122.464 25.0625 124.916 25.8099 127.064 27.3047C129.212 28.7995 130.903 30.853 132.136 33.4653C133.37 36.0775 133.987 39.0526 133.987 42.3905C133.987 45.7283 133.37 48.7034 132.136 51.3156C130.903 53.9279 129.212 55.9814 127.064 57.4762C124.916 58.9565 122.464 59.6966 119.706 59.6966ZM119.706 57.2367C122.043 57.2367 124.082 56.5764 125.823 55.2558C127.579 53.9351 128.936 52.1501 129.894 49.9007C130.866 47.6512 131.353 45.1478 131.353 42.3905C131.353 39.6331 130.866 37.1369 129.894 34.902C128.922 32.6526 127.565 30.8675 125.823 29.5469C124.082 28.2118 122.043 27.5442 119.706 27.5442C117.37 27.5442 115.331 28.2118 113.589 29.5469C111.848 30.8675 110.491 32.6526 109.519 34.902C108.546 37.1369 108.06 39.6331 108.06 42.3905C108.06 45.1478 108.539 47.6512 109.497 49.9007C110.469 52.1501 111.826 53.9351 113.567 55.2558C115.324 56.5764 117.37 57.2367 119.706 57.2367ZM143.135 71.5388V25.5632H145.725V33.0299H146.052C146.574 31.5932 147.307 30.2725 148.251 29.068C149.208 27.8635 150.391 26.8984 151.799 26.1727C153.221 25.4326 154.89 25.0625 156.806 25.0625C159.505 25.0625 161.856 25.8027 163.859 27.283C165.861 28.7632 167.414 30.8095 168.517 33.4217C169.62 36.0195 170.172 39.0018 170.172 42.3687C170.172 45.7356 169.613 48.7252 168.495 51.3374C167.392 53.9351 165.84 55.9814 163.837 57.4762C161.849 58.9565 159.519 59.6966 156.849 59.6966C154.948 59.6966 153.279 59.3338 151.842 58.6082C150.42 57.8825 149.223 56.9175 148.251 55.7129C147.293 54.4939 146.56 53.1587 146.052 51.7075H145.791V71.5388H143.135ZM145.747 42.3469C145.747 45.1914 146.182 47.7383 147.053 49.9877C147.924 52.2227 149.172 53.9932 150.797 55.2993C152.423 56.5909 154.36 57.2367 156.61 57.2367C158.888 57.2367 160.84 56.5837 162.466 55.2775C164.105 53.9569 165.353 52.1719 166.21 49.9224C167.08 47.673 167.516 45.1478 167.516 42.3469C167.516 39.546 167.088 37.0281 166.231 34.7932C165.375 32.5582 164.134 30.795 162.509 29.5034C160.884 28.1972 158.917 27.5442 156.61 27.5442C154.331 27.5442 152.379 28.19 150.754 29.4816C149.143 30.7587 147.902 32.5147 147.031 34.7496C146.175 36.97 145.747 39.5025 145.747 42.3469Z"
    fill="#F5F5F5" />
</svg>
  