<svg width="175" height="74" viewBox="0 0 175 74" fill="none" xmlns="http://www.w3.org/2000/svg">
  <path
    d="M19.3945 59.6966C16.1727 59.6966 13.3935 58.9855 11.057 57.5633C8.73503 56.1265 6.94274 54.1238 5.68015 51.5551C4.43208 48.9719 3.80804 45.9678 3.80804 42.5428C3.80804 39.1179 4.43208 36.0993 5.68015 33.487C6.94274 30.8603 8.69875 28.814 10.9482 27.3483C13.2121 25.868 15.8534 25.1278 18.872 25.1278C20.6135 25.1278 22.3332 25.4181 24.0312 25.9986C25.7292 26.5791 27.2747 27.5224 28.6679 28.8285C30.0611 30.1201 31.1713 31.8326 31.9986 33.966C32.8258 36.0993 33.2394 38.7261 33.2394 41.8462V44.0231H7.46519V39.5823H28.0149C28.0149 37.6957 27.6375 36.0122 26.8829 34.5319C26.1428 33.0517 25.0833 31.8834 23.7047 31.0272C22.3405 30.1709 20.7296 29.7428 18.872 29.7428C16.8257 29.7428 15.0552 30.2508 13.5604 31.2666C12.0802 32.268 10.9409 33.5741 10.1427 35.185C9.34455 36.7959 8.94546 38.5229 8.94546 40.366V43.3265C8.94546 45.8517 9.38083 47.9923 10.2516 49.7483C11.1368 51.4898 12.3632 52.8177 13.9305 53.732C15.4978 54.6317 17.3192 55.0816 19.3945 55.0816C20.7441 55.0816 21.9632 54.893 23.0516 54.5156C24.1545 54.1238 25.1051 53.5433 25.9033 52.7741C26.7015 51.9905 27.3183 51.0181 27.7536 49.8571L32.7169 51.2503C32.1945 52.9338 31.3165 54.4141 30.0829 55.6912C28.8493 56.9537 27.3255 57.9406 25.5115 58.6517C23.6974 59.3483 21.6584 59.6966 19.3945 59.6966ZM63.1061 32.7687L60.6462 33.4217C60.2544 32.2027 59.6956 31.1505 58.97 30.2653C58.2444 29.38 57.3301 28.6979 56.2272 28.219C55.1387 27.7256 53.8326 27.4789 52.3088 27.4789C49.8562 27.4789 47.8462 28.0884 46.2788 29.3074C44.726 30.5265 43.9496 32.1156 43.9496 34.0748C43.9496 35.6712 44.4793 36.9918 45.5387 38.0367C46.5981 39.0671 48.2163 39.8508 50.3931 40.3877L55.5306 41.6721C58.1718 42.3251 60.16 43.3846 61.4952 44.8503C62.8303 46.3016 63.4979 48.1084 63.4979 50.2707C63.4979 52.1138 62.9972 53.7465 61.9959 55.1687C60.9945 56.5909 59.6086 57.7011 57.838 58.4993C56.082 59.2975 54.0358 59.6966 51.6993 59.6966C48.5791 59.6966 46.0176 58.971 44.0149 57.5197C42.0122 56.054 40.7278 53.9569 40.1618 51.2286L42.7088 50.5755C43.1877 52.7524 44.1818 54.4141 45.6911 55.5605C47.2149 56.6925 49.2104 57.2585 51.6775 57.2585C54.4058 57.2585 56.6045 56.6127 58.2734 55.3211C59.9569 54.0295 60.7986 52.375 60.7986 50.3578C60.7986 48.8195 60.3052 47.5206 59.3183 46.4612C58.3315 45.4018 56.8367 44.6254 54.834 44.132L49.5006 42.8258C46.7723 42.1583 44.726 41.0916 43.3618 39.6258C41.9977 38.1456 41.3156 36.3242 41.3156 34.1619C41.3156 32.3623 41.7872 30.7805 42.7305 29.4163C43.6739 28.0521 44.9727 26.9854 46.6271 26.2163C48.2816 25.4471 50.1754 25.0625 52.3088 25.0625C55.1387 25.0625 57.4462 25.7301 59.2312 27.0653C61.0163 28.4004 62.3079 30.3016 63.1061 32.7687ZM75.3455 37.3183V59H72.6898V14.4176H75.3455V30.853H75.6068C76.3904 29.1115 77.6385 27.7256 79.351 26.6952C81.078 25.6503 83.146 25.1278 85.5551 25.1278C87.8045 25.1278 89.7855 25.6068 91.4979 26.5646C93.2104 27.5079 94.5456 28.8648 95.5034 30.6353C96.4757 32.3913 96.9619 34.4957 96.9619 36.9483V59H94.3279V37.0571C94.3279 34.1982 93.4789 31.9052 91.7809 30.1782C90.083 28.4512 87.8408 27.5877 85.0544 27.5877C83.1823 27.5877 81.5134 27.9941 80.0476 28.8068C78.5818 29.6195 77.4281 30.7587 76.5864 32.2245C75.7591 33.6757 75.3455 35.3737 75.3455 37.3183ZM120.38 59.6966C117.622 59.6966 115.17 58.9565 113.022 57.4762C110.874 55.9814 109.183 53.9279 107.95 51.3156C106.716 48.7034 106.099 45.7283 106.099 42.3905C106.099 39.0381 106.716 36.063 107.95 33.4653C109.183 30.853 110.874 28.7995 113.022 27.3047C115.17 25.8099 117.622 25.0625 120.38 25.0625C123.137 25.0625 125.59 25.8099 127.737 27.3047C129.885 28.7995 131.576 30.853 132.81 33.4653C134.043 36.0775 134.66 39.0526 134.66 42.3905C134.66 45.7283 134.043 48.7034 132.81 51.3156C131.576 53.9279 129.885 55.9814 127.737 57.4762C125.59 58.9565 123.137 59.6966 120.38 59.6966ZM120.38 57.2367C122.716 57.2367 124.755 56.5764 126.497 55.2558C128.253 53.9351 129.61 52.1501 130.567 49.9007C131.54 47.6512 132.026 45.1478 132.026 42.3905C132.026 39.6331 131.54 37.1369 130.567 34.902C129.595 32.6526 128.238 30.8675 126.497 29.5469C124.755 28.2118 122.716 27.5442 120.38 27.5442C118.043 27.5442 116.004 28.2118 114.263 29.5469C112.521 30.8675 111.164 32.6526 110.192 34.902C109.22 37.1369 108.733 39.6331 108.733 42.3905C108.733 45.1478 109.212 47.6512 110.17 49.9007C111.142 52.1501 112.499 53.9351 114.241 55.2558C115.997 56.5764 118.043 57.2367 120.38 57.2367ZM143.808 71.5388V25.5632H146.399V33.0299H146.725C147.248 31.5932 147.981 30.2725 148.924 29.068C149.882 27.8635 151.064 26.8984 152.472 26.1727C153.894 25.4326 155.563 25.0625 157.479 25.0625C160.178 25.0625 162.529 25.8027 164.532 27.283C166.535 28.7632 168.088 30.8095 169.191 33.4217C170.294 36.0195 170.845 39.0018 170.845 42.3687C170.845 45.7356 170.286 48.7252 169.169 51.3374C168.066 53.9351 166.513 55.9814 164.51 57.4762C162.522 58.9565 160.193 59.6966 157.523 59.6966C155.621 59.6966 153.952 59.3338 152.516 58.6082C151.093 57.8825 149.896 56.9175 148.924 55.7129C147.966 54.4939 147.233 53.1587 146.725 51.7075H146.464V71.5388H143.808ZM146.42 42.3469C146.42 45.1914 146.856 47.7383 147.727 49.9877C148.597 52.2227 149.845 53.9932 151.471 55.2993C153.096 56.5909 155.034 57.2367 157.283 57.2367C159.562 57.2367 161.513 56.5837 163.139 55.2775C164.779 53.9569 166.027 52.1719 166.883 49.9224C167.754 47.673 168.189 45.1478 168.189 42.3469C168.189 39.546 167.761 37.0281 166.905 34.7932C166.049 32.5582 164.808 30.795 163.182 29.5034C161.557 28.1972 159.591 27.5442 157.283 27.5442C155.005 27.5442 153.053 28.19 151.427 29.4816C149.816 30.7587 148.576 32.5147 147.705 34.7496C146.849 36.97 146.42 39.5025 146.42 42.3469Z"
    fill="black" />
</svg>
  